<svg width="167" height="77" viewBox="0 0 167 77" fill="none" xmlns="http://www.w3.org/2000/svg">
<circle cx="32.5" cy="32.5" r="32.5" fill="white"/>
<path d="M98.3182 76.5966C96.7386 76.5966 95.2955 76.2898 93.9886 75.6761C92.6818 75.0511 91.642 74.1534 90.8693 72.983C90.0966 71.8011 89.7102 70.3693 89.7102 68.6875C89.7102 67.392 89.9545 66.3011 90.4432 65.4148C90.9318 64.5284 91.625 63.8011 92.5227 63.233C93.4205 62.6648 94.483 62.2159 95.7102 61.8864C96.9375 61.5568 98.2898 61.3011 99.767 61.1193C101.233 60.9375 102.472 60.7784 103.483 60.642C104.506 60.5057 105.284 60.2898 105.818 59.9943C106.352 59.6989 106.619 59.2216 106.619 58.5625V57.9489C106.619 56.1648 106.085 54.7614 105.017 53.7386C103.96 52.7045 102.438 52.1875 100.449 52.1875C98.5625 52.1875 97.0227 52.6023 95.8295 53.4318C94.6477 54.2614 93.8182 55.2386 93.3409 56.3636L90.4602 55.3239C91.0511 53.892 91.8693 52.75 92.9148 51.8977C93.9602 51.0341 95.1307 50.4148 96.4261 50.0398C97.7216 49.6534 99.0341 49.4602 100.364 49.4602C101.364 49.4602 102.403 49.5909 103.483 49.8523C104.574 50.1136 105.585 50.5682 106.517 51.2159C107.449 51.8523 108.205 52.7443 108.784 53.892C109.364 55.0284 109.653 56.4716 109.653 58.2216V76H106.619V71.858H106.432C106.068 72.6307 105.528 73.3807 104.812 74.108C104.097 74.8352 103.199 75.4318 102.119 75.8977C101.04 76.3636 99.7727 76.5966 98.3182 76.5966ZM98.7273 73.8182C100.341 73.8182 101.739 73.4602 102.92 72.7443C104.102 72.0284 105.011 71.0795 105.648 69.8977C106.295 68.7045 106.619 67.392 106.619 65.9602V62.1761C106.392 62.392 106.011 62.5852 105.477 62.7557C104.955 62.9261 104.347 63.0795 103.653 63.2159C102.972 63.3409 102.29 63.4489 101.608 63.5398C100.926 63.6307 100.312 63.7102 99.767 63.7784C98.2898 63.9602 97.0284 64.2443 95.983 64.6307C94.9375 65.017 94.1364 65.5511 93.5795 66.233C93.0227 66.9034 92.7443 67.767 92.7443 68.8239C92.7443 70.4148 93.3125 71.6477 94.4489 72.5227C95.5852 73.3864 97.0114 73.8182 98.7273 73.8182ZM117.724 76V49.8182H120.673V53.8409H120.946C121.469 52.4886 122.338 51.4261 123.554 50.6534C124.781 49.8693 126.253 49.4773 127.969 49.4773C129.776 49.4773 131.259 49.9034 132.418 50.7557C133.588 51.5966 134.463 52.7557 135.043 54.233H135.264C135.855 52.7784 136.815 51.625 138.145 50.7727C139.486 49.9091 141.111 49.4773 143.02 49.4773C145.452 49.4773 147.372 50.2443 148.781 51.7784C150.19 53.3011 150.895 55.5284 150.895 58.4602V76H147.861V58.4602C147.861 56.392 147.332 54.8409 146.276 53.8068C145.219 52.7727 143.827 52.2557 142.099 52.2557C140.099 52.2557 138.56 52.8693 137.48 54.0966C136.401 55.3239 135.861 56.8807 135.861 58.767V76H132.759V58.1875C132.759 56.4148 132.264 54.983 131.276 53.892C130.287 52.8011 128.895 52.2557 127.099 52.2557C125.895 52.2557 124.81 52.5511 123.844 53.142C122.889 53.733 122.134 54.5568 121.577 55.6136C121.031 56.6591 120.759 57.8636 120.759 59.2273V76H117.724ZM158.962 76V49.8182H162.013V76H158.962ZM160.513 45.3182C159.888 45.3182 159.354 45.108 158.911 44.6875C158.467 44.2557 158.246 43.7386 158.246 43.1364C158.246 42.5341 158.467 42.0227 158.911 41.6023C159.354 41.1705 159.888 40.9545 160.513 40.9545C161.138 40.9545 161.672 41.1705 162.115 41.6023C162.558 42.0227 162.78 42.5341 162.78 43.1364C162.78 43.7386 162.558 44.2557 162.115 44.6875C161.672 45.108 161.138 45.3182 160.513 45.3182Z" fill="white"/>
<path d="M52.6009 71.831V65.0909H53.8651V76H52.6009V74.1889H52.5014C52.2457 74.7476 51.8409 75.214 51.2869 75.5881C50.733 75.9574 50.0559 76.142 49.2557 76.142C48.5597 76.142 47.9418 75.9905 47.402 75.6875C46.8622 75.3797 46.4384 74.9299 46.1307 74.3381C45.8229 73.7462 45.669 73.0194 45.669 72.1577V65.0909H46.9332V72.0795C46.9332 72.9318 47.1842 73.6184 47.6861 74.1392C48.188 74.6553 48.8319 74.9134 49.6179 74.9134C50.1103 74.9134 50.5838 74.795 51.0384 74.5582C51.4929 74.3215 51.867 73.9759 52.1605 73.5213C52.4541 73.062 52.6009 72.4986 52.6009 71.831ZM60.1793 76V41.0909H71.9577C74.2305 41.0909 76.1225 41.4886 77.6339 42.2841C79.1566 43.0795 80.2987 44.1648 81.06 45.5398C81.8214 46.9148 82.2021 48.4773 82.2021 50.2273C82.2021 51.6818 81.9577 52.9261 81.4691 53.9602C80.9805 54.9943 80.3157 55.8295 79.4748 56.4659C78.6339 57.1023 77.6964 57.5625 76.6623 57.8466V58.1193C77.7873 58.1989 78.8782 58.5966 79.935 59.3125C80.9918 60.017 81.8612 61.0057 82.543 62.2784C83.2248 63.5511 83.5657 65.0739 83.5657 66.8466C83.5657 68.608 83.1737 70.1818 82.3896 71.5682C81.6055 72.9432 80.4009 74.0284 78.7759 74.8239C77.1623 75.608 75.1055 76 72.6055 76H60.1793ZM63.3668 73.1364H72.6055C75.2987 73.1364 77.2873 72.5398 78.5714 71.3466C79.8668 70.1534 80.5146 68.6534 80.5146 66.8466C80.5146 65.517 80.1907 64.3125 79.543 63.233C78.9066 62.142 78.0032 61.2784 76.8327 60.642C75.6737 60.0057 74.31 59.6875 72.7418 59.6875H63.3668V73.1364ZM63.3668 56.858H72.2475C73.6225 56.858 74.8271 56.5739 75.8612 56.0057C76.8952 55.4375 77.7021 54.6534 78.2816 53.6534C78.8612 52.6534 79.1509 51.5114 79.1509 50.2273C79.1509 48.375 78.5487 46.8693 77.3441 45.7102C76.1396 44.5398 74.3441 43.9545 71.9577 43.9545H63.3668V56.858Z" fill="white"/>
<path d="M48.6172 26.1875C48.1172 25.0781 47.625 24.1094 47.1406 23.2812C46.6562 22.4375 46.0234 21.5625 45.2422 20.6562C44.4609 19.75 43.625 19.0078 42.7344 18.4297C41.8438 17.8516 40.75 17.375 39.4531 17C38.1562 16.625 36.7266 16.4375 35.1641 16.4375C33.4766 16.4375 31.9453 16.7812 30.5703 17.4688C29.1953 18.1562 28.0625 19.0547 27.1719 20.1641C26.2969 21.2734 25.5547 22.5625 24.9453 24.0312C24.3516 25.4844 23.9297 26.9531 23.6797 28.4375C23.4297 29.9062 23.3047 31.3984 23.3047 32.9141C23.3047 34.4141 23.4375 35.9062 23.7031 37.3906C23.9688 38.8594 24.4062 40.3203 25.0156 41.7734C25.6406 43.2266 26.4062 44.5 27.3125 45.5938C28.2188 46.6875 29.3594 47.5781 30.7344 48.2656C32.125 48.9375 33.6641 49.2734 35.3516 49.2734C38.7891 49.2734 41.1797 48.5078 42.5234 46.9766V37.4609C42.5234 37.1328 42.3906 36.8438 42.125 36.5938C41.8594 36.3281 41.5547 36.125 41.2109 35.9844C40.8672 35.8438 40.4062 35.7188 39.8281 35.6094C39.2656 35.4844 38.8047 35.3984 38.4453 35.3516C38.0859 35.3047 37.6328 35.2578 37.0859 35.2109C37.0234 34.9609 36.9922 34.7734 36.9922 34.6484C36.9922 34.5391 37.0234 34.3594 37.0859 34.1094C40.6172 34.2344 43.3359 34.2969 45.2422 34.2969C47.1797 34.2969 49.8984 34.2344 53.3984 34.1094C53.4766 34.4219 53.5156 34.6016 53.5156 34.6484C53.5156 34.7109 53.4766 34.8984 53.3984 35.2109C52.8516 35.2578 52.3984 35.3047 52.0391 35.3516C51.6797 35.3984 51.2109 35.4844 50.6328 35.6094C50.0703 35.7188 49.6172 35.8438 49.2734 35.9844C48.9453 36.125 48.6484 36.3281 48.3828 36.5938C48.1172 36.8438 47.9844 37.1328 47.9844 37.4609V40.9297C47.9844 43.8984 48.3359 46.3281 49.0391 48.2188C46.4609 49.1719 44.1719 49.8672 42.1719 50.3047C40.1719 50.7422 37.8984 50.9609 35.3516 50.9609C33.8359 50.9609 32.3125 50.8047 30.7812 50.4922C29.25 50.1797 27.6406 49.5938 25.9531 48.7344C24.2812 47.875 22.8047 46.7969 21.5234 45.5C20.2578 44.2031 19.2031 42.4688 18.3594 40.2969C17.5312 38.125 17.1172 35.6641 17.1172 32.9141C17.1172 30.9297 17.3281 29.0938 17.75 27.4062C18.1875 25.7031 18.7656 24.2422 19.4844 23.0234C20.2031 21.8047 21.0547 20.7109 22.0391 19.7422C23.0391 18.7734 24.0781 17.9844 25.1562 17.375C26.2344 16.7656 27.3672 16.2656 28.5547 15.875C29.7578 15.4688 30.8984 15.1875 31.9766 15.0312C33.0547 14.8594 34.1172 14.7734 35.1641 14.7734C36.9141 14.7734 38.5781 14.8828 40.1562 15.1016C41.75 15.3047 43.3359 15.5625 44.9141 15.875C46.4922 16.1719 47.7422 16.375 48.6641 16.4844C48.4297 17.1875 48.3125 18.1797 48.3125 19.4609C48.3125 21.5859 48.6953 23.6562 49.4609 25.6719C49.3672 25.9531 49.0859 26.125 48.6172 26.1875Z" fill="#1C6B5E"/>
</svg>
