<svg width="46" height="39" viewBox="0 0 46 39" fill="none" xmlns="http://www.w3.org/2000/svg">
<path d="M32.3182 38V20.5455H38.2074C39.3438 20.5455 40.2898 20.7443 41.0455 21.142C41.8068 21.5398 42.3778 22.0824 42.7585 22.7699C43.1392 23.4574 43.3295 24.2386 43.3295 25.1136C43.3295 25.8409 43.2074 26.4631 42.9631 26.9801C42.7188 27.4972 42.3864 27.9148 41.9659 28.233C41.5455 28.5511 41.0767 28.7812 40.5597 28.9233V29.0597C41.1222 29.0994 41.6676 29.2983 42.196 29.6562C42.7244 30.0085 43.1591 30.5028 43.5 31.1392C43.8409 31.7756 44.0114 32.5369 44.0114 33.4233C44.0114 34.304 43.8153 35.0909 43.4233 35.7841C43.0312 36.4716 42.429 37.0142 41.6165 37.4119C40.8097 37.804 39.7812 38 38.5312 38H32.3182ZM33.9119 36.5682H38.5312C39.8778 36.5682 40.8722 36.2699 41.5142 35.6733C42.1619 35.0767 42.4858 34.3267 42.4858 33.4233C42.4858 32.7585 42.3239 32.1562 42 31.6165C41.6818 31.071 41.2301 30.6392 40.6449 30.321C40.0653 30.0028 39.3835 29.8438 38.5994 29.8438H33.9119V36.5682ZM33.9119 28.429H38.3523C39.0398 28.429 39.642 28.2869 40.1591 28.0028C40.6761 27.7187 41.0795 27.3267 41.3693 26.8267C41.6591 26.3267 41.804 25.7557 41.804 25.1136C41.804 24.1875 41.5028 23.4347 40.9006 22.8551C40.2983 22.2699 39.4006 21.9773 38.2074 21.9773H33.9119V28.429Z" fill="white"/>
<circle cx="17" cy="17" r="17" fill="white"/>
<path d="M25.3086 14.0938C25.0586 13.5391 24.8125 13.0547 24.5703 12.6406C24.3281 12.2188 24.0117 11.7812 23.6211 11.3281C23.2305 10.875 22.8125 10.5039 22.3672 10.2148C21.9219 9.92578 21.375 9.6875 20.7266 9.5C20.0781 9.3125 19.3633 9.21875 18.582 9.21875C17.7383 9.21875 16.9727 9.39062 16.2852 9.73438C15.5977 10.0781 15.0312 10.5273 14.5859 11.082C14.1484 11.6367 13.7773 12.2812 13.4727 13.0156C13.1758 13.7422 12.9648 14.4766 12.8398 15.2188C12.7148 15.9531 12.6523 16.6992 12.6523 17.457C12.6523 18.207 12.7188 18.9531 12.8516 19.6953C12.9844 20.4297 13.2031 21.1602 13.5078 21.8867C13.8203 22.6133 14.2031 23.25 14.6562 23.7969C15.1094 24.3438 15.6797 24.7891 16.3672 25.1328C17.0625 25.4688 17.832 25.6367 18.6758 25.6367C20.3945 25.6367 21.5898 25.2539 22.2617 24.4883V19.7305C22.2617 19.5664 22.1953 19.4219 22.0625 19.2969C21.9297 19.1641 21.7773 19.0625 21.6055 18.9922C21.4336 18.9219 21.2031 18.8594 20.9141 18.8047C20.6328 18.7422 20.4023 18.6992 20.2227 18.6758C20.043 18.6523 19.8164 18.6289 19.543 18.6055C19.5117 18.4805 19.4961 18.3867 19.4961 18.3242C19.4961 18.2695 19.5117 18.1797 19.543 18.0547C21.3086 18.1172 22.668 18.1484 23.6211 18.1484C24.5898 18.1484 25.9492 18.1172 27.6992 18.0547C27.7383 18.2109 27.7578 18.3008 27.7578 18.3242C27.7578 18.3555 27.7383 18.4492 27.6992 18.6055C27.4258 18.6289 27.1992 18.6523 27.0195 18.6758C26.8398 18.6992 26.6055 18.7422 26.3164 18.8047C26.0352 18.8594 25.8086 18.9219 25.6367 18.9922C25.4727 19.0625 25.3242 19.1641 25.1914 19.2969C25.0586 19.4219 24.9922 19.5664 24.9922 19.7305V21.4648C24.9922 22.9492 25.168 24.1641 25.5195 25.1094C24.2305 25.5859 23.0859 25.9336 22.0859 26.1523C21.0859 26.3711 19.9492 26.4805 18.6758 26.4805C17.918 26.4805 17.1562 26.4023 16.3906 26.2461C15.625 26.0898 14.8203 25.7969 13.9766 25.3672C13.1406 24.9375 12.4023 24.3984 11.7617 23.75C11.1289 23.1016 10.6016 22.2344 10.1797 21.1484C9.76562 20.0625 9.55859 18.832 9.55859 17.457C9.55859 16.4648 9.66406 15.5469 9.875 14.7031C10.0938 13.8516 10.3828 13.1211 10.7422 12.5117C11.1016 11.9023 11.5273 11.3555 12.0195 10.8711C12.5195 10.3867 13.0391 9.99219 13.5781 9.6875C14.1172 9.38281 14.6836 9.13281 15.2773 8.9375C15.8789 8.73438 16.4492 8.59375 16.9883 8.51562C17.5273 8.42969 18.0586 8.38672 18.582 8.38672C19.457 8.38672 20.2891 8.44141 21.0781 8.55078C21.875 8.65234 22.668 8.78125 23.457 8.9375C24.2461 9.08594 24.8711 9.1875 25.332 9.24219C25.2148 9.59375 25.1562 10.0898 25.1562 10.7305C25.1562 11.793 25.3477 12.8281 25.7305 13.8359C25.6836 13.9766 25.543 14.0625 25.3086 14.0938Z" fill="#1C6B5E"/>
</svg>
